<svg xmlns="http://www.w3.org/2000/svg" xmlns:xlink="http://www.w3.org/1999/xlink" width="79" height="70" viewBox="0 0 79 70">
  <defs>
    <clipPath id="clip-path">
      <path id="Path_1" data-name="Path 1" d="M0,26.732A2.112,2.112,0,1,0,2.113,24.62,2.112,2.112,0,0,0,0,26.732m2.24-7.143A2.492,2.492,0,1,0,4.732,17.1,2.492,2.492,0,0,0,2.24,19.589m5.24-6.512a1.609,1.609,0,1,0,1.608-1.609A1.608,1.608,0,0,0,7.48,13.077M1.1,12.136a1.323,1.323,0,1,0,1.323-1.323A1.323,1.323,0,0,0,1.1,12.136M12.171,7.8a3.041,3.041,0,1,0,3.042-3.042A3.042,3.042,0,0,0,12.171,7.8M7.22,35.74a.574.574,0,1,1,.573.573.573.573,0,0,1-.573-.573M1.483,32.866a.985.985,0,1,1,.986.985.985.985,0,0,1-.986-.985M19.115,31.05c.856-.125.711.036.845-.845.125.856-.036.711.846.845-.856.125-.711-.036-.846.846-.125-.856.036-.711-.845-.846m-2.236-4.481c.856-.125.711.036.846-.846.125.857-.036.711.845.846-.856.125-.711-.036-.845.846-.125-.856.035-.711-.846-.846m2.712.643c1.8-.263,1.494.075,1.776-1.776.263,1.8-.075,1.493,1.776,1.776-1.8.262-1.493-.075-1.776,1.776-.263-1.8.075-1.494-1.776-1.776M14.457,17.145a.985.985,0,1,1,.986.986.985.985,0,0,1-.986-.986m8.452-5.988a.986.986,0,1,1,.986.985.986.986,0,0,1-.986-.985M34.77,3.7A3.373,3.373,0,0,1,28.2,4.767,5.938,5.938,0,0,1,22.608,8.7a5.908,5.908,0,0,1-3.2-.938,4.353,4.353,0,0,1-7.237,4.788,3.129,3.129,0,0,1-2.6,3.608,2.018,2.018,0,0,1-.819,2.313,2.959,2.959,0,0,1-.639,5.847c-.054,0-.108,0-.161,0A5.412,5.412,0,0,1,.211,30.435V40.729a10.154,10.154,0,0,0,5.2,9l17.315,10a10.156,10.156,0,0,0,10.4,0l17.316-10a10.154,10.154,0,0,0,5.2-9V20.734a10.154,10.154,0,0,0-5.2-9L34.579,2.576A3.359,3.359,0,0,1,34.77,3.7m-4.894,0A1.522,1.522,0,1,0,31.4,2.177,1.521,1.521,0,0,0,29.876,3.7m-9.085-.93A1.817,1.817,0,1,0,22.608.952a1.816,1.816,0,0,0-1.817,1.817m-5.4-1.445A1.323,1.323,0,1,0,16.71,0a1.323,1.323,0,0,0-1.323,1.324" fill="none"/>
    </clipPath>
    <linearGradient id="linear-gradient" y1="1" x2="0.009" y2="1" gradientUnits="objectBoundingBox">
      <stop offset="0" stop-color="#033d73"/>
      <stop offset="1" stop-color="#11b8ec"/>
    </linearGradient>
    <clipPath id="clip-path-2">
      <rect id="Rectangle_4" data-name="Rectangle 4" width="55.634" height="61.637" fill="none"/>
    </clipPath>
  </defs>
  <g id="Group_5107" data-name="Group 5107" transform="translate(-373 -81)">
    <rect id="Rectangle_13" data-name="Rectangle 13" width="79" height="70" rx="10" transform="translate(373 81)" fill="#033d73"/>
    <g id="Group_6" data-name="Group 6" transform="translate(384.683 85.181)">
      <g id="Group_2" data-name="Group 2">
        <g id="Group_1" data-name="Group 1" clip-path="url(#clip-path)">
          <rect id="Rectangle_3" data-name="Rectangle 3" width="55.637" height="61.64" transform="translate(-0.002 -0.001)" fill="url(#linear-gradient)"/>
        </g>
      </g>
      <g id="Group_4" data-name="Group 4">
        <g id="Group_3" data-name="Group 3" clip-path="url(#clip-path-2)">
          <path id="Path_2" data-name="Path 2" d="M59.991,34.726l-.685-.685-1.918,1.495L55.47,37.03l-.482,1.55L45.9,47.651a4.02,4.02,0,0,0-5.05.5l-5.392,5.392-6.439,6.484a4.018,4.018,0,0,0,0,5.664h0a4.017,4.017,0,0,0,5.664,0L40.081,60.3l4.607-4.607-.023-.023,1.854-1.854a4.018,4.018,0,0,0,.526-5.008l9.091-9.079,1.55-.482,1.495-1.918,1.495-1.918ZM30.739,61.761a.676.676,0,0,1-.618.285,1,1,0,0,1-.813-.813.661.661,0,0,1,.259-.6c.012-.014.024-.027.037-.04l4.948-4.948,4.934-4.934a.859.859,0,0,1,.123-.1l-.034-.034L41.4,48.761a.7.7,0,0,1,.65-.325,1,1,0,0,1,.813.813.624.624,0,0,1-.207.542.808.808,0,0,1-.077.089L37.56,54.895l-6.806,6.852Zm1.122,1.91a1.054,1.054,0,0,1-.813-.813c0-.3.037-.276.1-.392a.793.793,0,0,1,.138-.186l5.1-5.1L41.17,52.4a.8.8,0,0,1,.123-.1l-.034-.034,1.812-1.812a.672.672,0,0,1,.612-.278,1.055,1.055,0,0,1,.813.813c0,.3-.037.276-.1.393a.8.8,0,0,1-.138.185l-5.1,5.1-.238.238-.621.621-.861.861-.961.961-.918.918L34.822,61c-.351.351-.683.729-1.036,1.082l-.951.951-.362.362a.672.672,0,0,1-.612.278M45.977,53.207c-.012.014-.024.027-.037.04-.372.372-11.885,11.932-11.515,11.561l-.275.275a.7.7,0,0,1-.65.325,1,1,0,0,1-.813-.813.625.625,0,0,1,.207-.542.853.853,0,0,1,.077-.089l9.883-9.883a.686.686,0,0,1,.124-.1l-.035-.036,1.863-1.863a.677.677,0,0,1,.618-.284,1,1,0,0,1,.813.813.66.66,0,0,1-.259.6" transform="translate(-14.39 -17.585)" fill="#fff"/>
          <path id="Path_3" data-name="Path 3" d="M60.641,50.791a1.368,1.368,0,0,1-.456,2.161l-2.429,1.093v5.139l-2.735-2.735V53.16a1.367,1.367,0,0,1,.807-1.247l1.528-.687-4.817-5.363,1.924-1.951ZM30.419,52.952l2.429,1.093v4.165l2.735-2.735V53.16a1.368,1.368,0,0,0-.806-1.247l-1.531-.688,1.121-1.252A7.483,7.483,0,0,1,31.834,48.7l-1.873,2.091a1.368,1.368,0,0,0,.458,2.159M42.067,37.5a7.513,7.513,0,0,1,1.454,2.247l1.759-1.965,6.081,6.769L53.3,42.618l-7-7.8a1.367,1.367,0,0,0-1.017-.453h0a1.366,1.366,0,0,0-1.018.455l-2.3,2.574c.036.037.077.066.113.1M38.721,64.476H52.475l-2.589-2.77h-8.46Z" transform="translate(-15.298 -17.754)" fill="#fff"/>
          <path id="Path_4" data-name="Path 4" d="M59.938,61.257,43.116,44.435a7.569,7.569,0,0,0-9.549-9.549l1.05,1.05,2.86,2.86L36.967,40.7l-.511,1.907-1.907.511-1.907.511-2.86-2.86-1.05-1.05a7.569,7.569,0,0,0,9.549,9.549L55.1,66.092a3.419,3.419,0,1,0,4.835-4.835M57.692,64.6a.756.756,0,1,1,.756-.756.756.756,0,0,1-.756.756" transform="translate(-14.649 -17.828)" fill="#fff"/>
        </g>
      </g>
    </g>
  </g>
</svg>
