<svg xmlns="http://www.w3.org/2000/svg" width="512.011" height="511.991" viewBox="0 0 512.011 511.991">
  <path id="phone-volume-solid" d="M284.6,181.9a24.021,24.021,0,0,0-30.4,37.2,47.069,47.069,0,0,1,0,73.74,24.008,24.008,0,0,0,30.375,37.186A95.13,95.13,0,0,0,284.6,181.9Zm60.5-74.8a24,24,0,1,0-30.436,37.123c33.88,27.78,53.31,68.18,53.31,110.9s-19.44,83.09-53.31,110.9A24,24,0,0,0,345.1,403.146,188.466,188.466,0,0,0,416,255.1C416,197.1,390.2,144.9,345.1,107.1Zm61.3-73.95a24,24,0,0,0-30.436,37.124C431.9,116.1,464,183.8,464,255.1a240.474,240.474,0,0,1-88.06,185.7,24,24,0,0,0,30.436,37.123C473.5,423.8,512,342.6,512,255.1S473.5,88.15,406.4,33.15ZM151.3,174.6c9.8,1,20.8-5.1,24.7-15l33.75-84.38c4.25-10.87-.65-24.12-9.55-29.36L132.73,3.69A24.035,24.035,0,0,0,102.9,7.08C-34.32,144.3-34.31,367.7,102.9,504.9a23.912,23.912,0,0,0,29.75,3.4l67.48-42.19a24.124,24.124,0,0,0,9.6-29.3L176,352.5a23.954,23.954,0,0,0-24.73-14.97l-53.24,5.314A269.234,269.234,0,0,1,98.06,169.3Z" transform="translate(0.011 0.001)" fill="#fff"/>
</svg>
